
<svg width="100" height="100" viewBox="0 0 100 100" fill="none" xmlns="http://www.w3.org/2000/svg">
<rect width="100" height="100" rx="16" fill="white"/>
<path d="M11.1094 52.9375H13.334C13.8874 54.0221 14.5736 55.1953 15.3926 56.457C16.2116 57.6966 17.1745 58.9362 18.2812 60.1758C19.388 61.4154 20.6497 62.6107 22.0664 63.7617C23.4831 64.8906 25.0658 65.8867 26.8145 66.75C28.5632 67.6133 30.4889 68.3105 32.5918 68.8418C34.6947 69.3509 36.9967 69.6055 39.498 69.6055C40.2285 69.6055 41.0475 69.5723 41.9551 69.5059C42.8626 69.4173 43.7148 69.2513 44.5117 69.0078C45.3086 68.7422 45.9727 68.377 46.5039 67.9121C47.0573 67.4251 47.334 66.7832 47.334 65.9863C47.334 65.1452 46.9798 64.4036 46.2715 63.7617C45.5853 63.0977 44.5339 62.4668 43.1172 61.8691C41.7005 61.2493 39.9076 60.6296 37.7383 60.0098C35.5911 59.39 33.0566 58.6927 30.1348 57.918C23.627 56.2357 18.8014 53.8893 15.6582 50.8789C12.5371 47.8464 10.9766 44.1497 10.9766 39.7891C10.9766 37.0664 11.5299 34.6426 12.6367 32.5176C13.7656 30.3926 15.293 28.6107 17.2188 27.1719C19.1667 25.7109 21.4355 24.6042 24.0254 23.8516C26.6374 23.0768 29.4154 22.6895 32.3594 22.6895C33.8646 22.6895 35.4362 22.8223 37.0742 23.0879C38.7344 23.3535 40.3503 23.7188 41.9219 24.1836C43.4935 24.6484 44.9766 25.2129 46.3711 25.877C47.7656 26.5189 48.9831 27.2272 50.0234 28.002L55.0371 23.1543H57.3281V37.5977H55.2363C54.2624 35.849 53.0117 34.222 51.4844 32.7168C49.957 31.2116 48.2083 29.9056 46.2383 28.7988C44.2682 27.6921 42.0879 26.8177 39.6973 26.1758C37.3066 25.5339 34.7721 25.2129 32.0938 25.2129C31.5846 25.2129 30.9316 25.235 30.1348 25.2793C29.3379 25.3014 28.5521 25.4121 27.7773 25.6113C27.0247 25.8105 26.3717 26.1315 25.8184 26.5742C25.265 26.9948 24.9883 27.5924 24.9883 28.3672C24.9883 29.6289 26.1283 30.8464 28.4082 32.0195C30.7103 33.1706 34.1302 34.3438 38.668 35.5391C40.5938 36.0482 42.4531 36.5905 44.2461 37.166C46.0391 37.7194 47.7103 38.3613 49.2598 39.0918C50.8314 39.8001 52.248 40.6191 53.5098 41.5488C54.7936 42.4564 55.8893 43.5299 56.7969 44.7695C57.7044 46.0091 58.4017 47.4258 58.8887 49.0195C59.3978 50.6133 59.6523 52.4505 59.6523 54.5312C59.6523 56.944 59.2096 59.224 58.3242 61.3711C57.4388 63.5182 56.1107 65.3997 54.3398 67.0156C52.5911 68.6315 50.4108 69.9154 47.7988 70.8672C45.1868 71.7969 42.1654 72.2617 38.7344 72.2617C36.8529 72.2617 35.082 72.1178 33.4219 71.8301C31.7617 71.5423 30.1458 71.1107 28.5742 70.5352C27.0247 69.9596 25.4863 69.2402 23.959 68.377C22.4316 67.4915 20.86 66.4622 19.2441 65.2891L13.5996 71.6309H11.1094V52.9375Z" fill="black"/>
<path d="M78.9434 52.2734C78.4785 51.4987 77.9583 50.7018 77.3828 49.8828C76.8294 49.0638 76.2318 48.2116 75.5898 47.3262C74.7266 46.1087 73.8522 44.8581 72.9668 43.5742C72.1035 42.2682 71.3177 40.9401 70.6094 39.5898C69.9232 38.2174 69.3587 36.8451 68.916 35.4727C68.4954 34.0781 68.2852 32.6947 68.2852 31.3223C68.2852 29.8171 68.5618 28.5221 69.1152 27.4375C69.6908 26.3307 70.4655 25.4342 71.4395 24.748C72.4134 24.0397 73.5423 23.5195 74.8262 23.1875C76.11 22.8555 77.4824 22.6895 78.9434 22.6895C80.36 22.6895 81.7103 22.8555 82.9941 23.1875C84.278 23.5195 85.4069 24.0397 86.3809 24.748C87.3548 25.4342 88.1185 26.3307 88.6719 27.4375C89.2474 28.5221 89.5352 29.8171 89.5352 31.3223C89.5352 32.7168 89.3138 34.1113 88.8711 35.5059C88.4284 36.8783 87.8529 38.2507 87.1445 39.623C86.4583 40.9733 85.6836 42.3014 84.8203 43.6074C83.957 44.8913 83.0938 46.1419 82.2305 47.3594C81.6107 48.2448 81.013 49.097 80.4375 49.916C79.8841 50.735 79.3861 51.5208 78.9434 52.2734ZM70.3105 63.3301C70.3105 62.0905 70.543 60.9284 71.0078 59.8438C71.4727 58.737 72.1146 57.7852 72.9336 56.9883C73.7526 56.1693 74.7044 55.5273 75.7891 55.0625C76.8737 54.5977 78.0358 54.3652 79.2754 54.3652C80.4928 54.3652 81.6439 54.5977 82.7285 55.0625C83.8132 55.5273 84.765 56.1693 85.584 56.9883C86.403 57.7852 87.0449 58.737 87.5098 59.8438C87.9746 60.9284 88.207 62.0905 88.207 63.3301C88.207 64.5697 87.9746 65.7318 87.5098 66.8164C87.0449 67.8789 86.403 68.8197 85.584 69.6387C84.765 70.4577 83.8132 71.0996 82.7285 71.5645C81.6439 72.0293 80.4928 72.2617 79.2754 72.2617C78.0358 72.2617 76.8737 72.0293 75.7891 71.5645C74.7044 71.0996 73.7526 70.4577 72.9336 69.6387C72.1146 68.8197 71.4727 67.8789 71.0078 66.8164C70.543 65.7318 70.3105 64.5697 70.3105 63.3301Z" fill="#C0150B"/>
</svg>
